<svg xmlns="http://www.w3.org/2000/svg" version="1.1" xmlns:xlink="http://www.w3.org/1999/xlink" xmlns:svgjs="http://svgjs.dev/svgjs" width="1500" height="1500" viewBox="0 0 1500 1500"><rect width="1500" height="1500" fill="#ffffff"></rect><g transform="matrix(0.6666666666666666,0,0,0.6666666666666666,249.06352982855503,356.40107526881724)"><svg viewBox="0 0 316 248" data-background-color="#ffffff" preserveAspectRatio="xMidYMid meet" height="1177" width="1500" xmlns="http://www.w3.org/2000/svg" xmlns:xlink="http://www.w3.org/1999/xlink"><g id="tight-bounds" transform="matrix(1,0,0,1,0.29592457417660967,0.4000000000000057)"><svg viewBox="0 0 315.4081508516468 247.2" height="247.2" width="315.4081508516468"><g><svg viewBox="0 0 395.5199999999999 309.98737266617945" height="247.2" width="315.4081508516468"><g transform="matrix(1,0,0,1,0,226.7451730449903)"><svg viewBox="0 0 395.5199999999999 83.24219962118917" height="83.24219962118917" width="395.5199999999999"><g id="textblocktransform"><svg viewBox="0 0 395.5199999999999 83.24219962118917" height="83.24219962118917" width="395.5199999999999" id="textblock"><g><svg viewBox="0 0 395.5199999999999 44.89686486486486" height="44.89686486486486" width="395.5199999999999"><g transform="matrix(1,0,0,1,0,0)"><svg width="395.5199999999999" viewBox="1.67 -33.33 385.37 43.75" height="44.89686486486486" data-palette-color="#d2d6dc"><path d="M10-27.71L1.67-27.71 1.67-31.25 22.29-31.25 22.29-27.71 13.96-27.71 13.96 0 10 0 10-27.71ZM31.04 0L27.29 0 27.29-33.33 31.04-33.33 31.04-17.88Q32.22-19.51 33.96-20.38 35.69-21.25 37.67-21.25L37.67-21.25Q39.89-21.25 41.79-20.16 43.68-19.06 44.86-17 46.04-14.93 46.04-11.98L46.04-11.98 46.04 0 42.29 0 42.29-11.46Q42.29-13.92 40.81-15.82 39.34-17.71 36.66-17.71L36.66-17.71Q34.48-17.71 32.76-16.13 31.04-14.55 31.04-11.56L31.04-11.56 31.04 0ZM62.22 0.42L62.22 0.42Q58.95 0.42 56.37-1.04 53.78-2.5 52.3-5.02 50.83-7.53 50.83-10.63L50.83-10.63Q50.83-13.58 52.25-15.99 53.68-18.4 56.09-19.83 58.5-21.25 61.42-21.25L61.42-21.25Q64.3-21.25 66.7-19.88 69.09-18.51 70.52-16.18 71.94-13.85 71.94-10.9L71.94-10.9 71.94-9.38 58.33-9.38Q57.43-9.38 56.49-9.44 55.55-9.51 54.65-9.65L54.65-9.65Q55.03-6.88 57.17-5 59.3-3.13 62.25-3.13L62.25-3.13Q64.23-3.13 65.93-4.03 67.63-4.93 68.68-6.42L68.68-6.42 69.72-2.15Q68.22-0.94 66.3-0.26 64.37 0.42 62.22 0.42ZM54.54-12.19L54.54-12.19Q56.42-12.5 58.33-12.5L58.33-12.5 65.24-12.5Q66-12.5 66.75-12.45 67.5-12.4 68.26-12.33L68.26-12.33Q67.77-14.76 65.83-16.34 63.88-17.92 61.42-17.92L61.42-17.92Q58.88-17.92 56.97-16.23 55.06-14.55 54.54-12.19ZM92.35 0L88.39 0 88.39-31.25 96.14-31.25Q99.23-31.25 101.36-30.31 103.5-29.38 104.82-27.86 106.14-26.35 106.74-24.58 107.35-22.81 107.35-21.11L107.35-21.11Q107.35-19.44 106.76-17.67 106.17-15.9 104.85-14.38 103.53-12.85 101.38-11.91 99.23-10.97 96.14-10.97L96.14-10.97 92.35-10.97 92.35 0ZM92.35-27.71L92.35-14.51 95.93-14.51Q98.74-14.51 100.37-15.5 102-16.49 102.7-18 103.39-19.51 103.39-21.11L103.39-21.11Q103.39-22.64 102.72-24.17 102.04-25.69 100.42-26.7 98.81-27.71 95.93-27.71L95.93-27.71 92.35-27.71ZM122.28 0.42L122.28 0.42Q119.02 0.42 116.43-1.04 113.84-2.5 112.37-5.02 110.89-7.53 110.89-10.63L110.89-10.63Q110.89-13.58 112.31-15.99 113.74-18.4 116.15-19.83 118.56-21.25 121.48-21.25L121.48-21.25Q124.36-21.25 126.76-19.88 129.15-18.51 130.58-16.18 132-13.85 132-10.9L132-10.9 132-9.38 118.39-9.38Q117.49-9.38 116.55-9.44 115.61-9.51 114.71-9.65L114.71-9.65Q115.09-6.88 117.23-5 119.36-3.13 122.31-3.13L122.31-3.13Q124.29-3.13 125.99-4.03 127.7-4.93 128.74-6.42L128.74-6.42 129.78-2.15Q128.29-0.94 126.36-0.26 124.43 0.42 122.28 0.42ZM114.61-12.19L114.61-12.19Q116.48-12.5 118.39-12.5L118.39-12.5 125.3-12.5Q126.06-12.5 126.81-12.45 127.56-12.4 128.32-12.33L128.32-12.33Q127.83-14.76 125.89-16.34 123.95-17.92 121.48-17.92L121.48-17.92Q118.95-17.92 117.04-16.23 115.13-14.55 114.61-12.19ZM146.51 0.42L146.51 0.42Q143.49 0.42 140.99-1.04 138.49-2.5 137.02-4.97 135.54-7.43 135.54-10.42L135.54-10.42Q135.54-13.44 137.02-15.89 138.49-18.33 140.99-19.79 143.49-21.25 146.51-21.25L146.51-21.25Q149.57-21.25 152.05-19.79 154.53-18.33 156.01-15.89 157.49-13.44 157.49-10.42L157.49-10.42Q157.49-7.43 156.01-4.97 154.53-2.5 152.05-1.04 149.57 0.42 146.51 0.42ZM146.51-3.13L146.51-3.13Q148.53-3.13 150.16-4.11 151.79-5.1 152.76-6.75 153.74-8.4 153.74-10.42L153.74-10.42Q153.74-12.43 152.76-14.08 151.79-15.73 150.16-16.72 148.53-17.71 146.51-17.71L146.51-17.71Q144.5-17.71 142.87-16.72 141.24-15.73 140.26-14.08 139.29-12.43 139.29-10.42L139.29-10.42Q139.29-8.4 140.26-6.75 141.24-5.1 142.87-4.11 144.5-3.13 146.51-3.13ZM166.44 10.42L162.69 10.42 162.69-20.83 166.16-20.83 166.16-18.09Q167.59-19.51 169.46-20.31 171.34-21.11 173.49-21.11L173.49-21.11Q176.37-21.11 178.72-19.67 181.06-18.23 182.47-15.8 183.87-13.37 183.87-10.42L183.87-10.42Q183.87-7.47 182.47-5.03 181.06-2.6 178.72-1.16 176.37 0.28 173.49 0.28L173.49 0.28Q171.44 0.28 169.64-0.45 167.83-1.18 166.44-2.47L166.44-2.47 166.44 10.42ZM173-3.13L173-3.13Q174.98-3.13 176.6-4.11 178.21-5.1 179.17-6.75 180.12-8.4 180.12-10.42L180.12-10.42Q180.12-12.43 179.17-14.08 178.21-15.73 176.6-16.72 174.98-17.71 173-17.71L173-17.71Q171.02-17.71 169.41-16.72 167.8-15.73 166.84-14.08 165.89-12.43 165.89-10.42L165.89-10.42Q165.89-8.4 166.84-6.75 167.8-5.1 169.41-4.11 171.02-3.13 173-3.13ZM192.83 0L189.08 0 189.08-33.33 192.83-33.33 192.83 0ZM209.42 0.42L209.42 0.42Q206.16 0.42 203.57-1.04 200.98-2.5 199.51-5.02 198.03-7.53 198.03-10.63L198.03-10.63Q198.03-13.58 199.46-15.99 200.88-18.4 203.29-19.83 205.71-21.25 208.62-21.25L208.62-21.25Q211.51-21.25 213.9-19.88 216.3-18.51 217.72-16.18 219.14-13.85 219.14-10.9L219.14-10.9 219.14-9.38 205.53-9.38Q204.63-9.38 203.69-9.44 202.76-9.51 201.85-9.65L201.85-9.65Q202.23-6.88 204.37-5 206.51-3.13 209.46-3.13L209.46-3.13Q211.44-3.13 213.14-4.03 214.84-4.93 215.88-6.42L215.88-6.42 216.92-2.15Q215.43-0.94 213.5-0.26 211.57 0.42 209.42 0.42ZM201.75-12.19L201.75-12.19Q203.62-12.5 205.53-12.5L205.53-12.5 212.44-12.5Q213.21-12.5 213.95-12.45 214.7-12.4 215.46-12.33L215.46-12.33Q214.98-14.76 213.03-16.34 211.09-17.92 208.62-17.92L208.62-17.92Q206.09-17.92 204.18-16.23 202.27-14.55 201.75-12.19ZM226.23-19.79L224.77-19.79 223.1-31.25 227.89-31.25 226.23-19.79ZM238.9 0.42L238.9 0.42Q237.3 0.42 235.48-0.19 233.65-0.8 232.33-2.22L232.33-2.22 233.38-6.32Q234.35-4.69 235.88-3.73 237.4-2.78 239.14-2.78L239.14-2.78Q240.81-2.78 241.64-3.59 242.47-4.41 242.47-5.59L242.47-5.59Q242.47-6.94 241.59-7.57 240.7-8.19 240.01-8.44L240.01-8.44 237.19-9.51Q236.43-9.83 235.35-10.43 234.28-11.04 233.48-12.19 232.68-13.33 232.68-15.17L232.68-15.17Q232.68-16.84 233.48-18.23 234.28-19.62 235.74-20.43 237.19-21.25 239.17-21.25L239.17-21.25Q240.74-21.25 242.44-20.69 244.14-20.14 245.32-18.82L245.32-18.82 244.28-14.72Q243.44-16.25 242.02-17.15 240.6-18.06 239.07-18.06L239.07-18.06Q237.65-18.06 236.83-17.26 236.01-16.46 236.01-15.42L236.01-15.42Q236.01-14.58 236.57-13.92 237.13-13.26 238.24-12.85L238.24-12.85 241.05-11.77Q241.81-11.49 242.94-10.87 244.07-10.24 244.94-9.06 245.81-7.88 245.81-5.87L245.81-5.87Q245.81-3.06 243.84-1.32 241.88 0.42 238.9 0.42ZM266.63 0L262.68 0 262.68-31.25 270.42-31.25Q273.51-31.25 275.64-30.31 277.78-29.38 279.1-27.86 280.42-26.35 281.03-24.58 281.63-22.81 281.63-21.11L281.63-21.11Q281.63-19.44 281.04-17.67 280.45-15.9 279.13-14.38 277.81-12.85 275.66-11.91 273.51-10.97 270.42-10.97L270.42-10.97 266.63-10.97 266.63 0ZM266.63-27.71L266.63-14.51 270.21-14.51Q273.02-14.51 274.66-15.5 276.29-16.49 276.98-18 277.68-19.51 277.68-21.11L277.68-21.11Q277.68-22.64 277-24.17 276.32-25.69 274.71-26.7 273.09-27.71 270.21-27.71L270.21-27.71 266.63-27.71ZM296.15 0.42L296.15 0.42Q293.12 0.42 290.62-1.04 288.12-2.5 286.65-4.97 285.17-7.43 285.17-10.42L285.17-10.42Q285.17-13.44 286.65-15.89 288.12-18.33 290.62-19.79 293.12-21.25 296.15-21.25L296.15-21.25Q299.2-21.25 301.68-19.79 304.17-18.33 305.64-15.89 307.12-13.44 307.12-10.42L307.12-10.42Q307.12-7.43 305.64-4.97 304.17-2.5 301.68-1.04 299.2 0.42 296.15 0.42ZM296.15-3.13L296.15-3.13Q298.16-3.13 299.79-4.11 301.42-5.1 302.4-6.75 303.37-8.4 303.37-10.42L303.37-10.42Q303.37-12.43 302.4-14.08 301.42-15.73 299.79-16.72 298.16-17.71 296.15-17.71L296.15-17.71Q294.13-17.71 292.5-16.72 290.87-15.73 289.9-14.08 288.92-12.43 288.92-10.42L288.92-10.42Q288.92-8.4 289.9-6.75 290.87-5.1 292.5-4.11 294.13-3.13 296.15-3.13ZM322.25 0.42L322.25 0.42Q318.99 0.42 316.4-1.04 313.82-2.5 312.34-5.02 310.87-7.53 310.87-10.63L310.87-10.63Q310.87-13.58 312.29-15.99 313.71-18.4 316.13-19.83 318.54-21.25 321.46-21.25L321.46-21.25Q324.34-21.25 326.73-19.88 329.13-18.51 330.55-16.18 331.98-13.85 331.98-10.9L331.98-10.9 331.98-9.38 318.37-9.38Q317.46-9.38 316.53-9.44 315.59-9.51 314.68-9.65L314.68-9.65Q315.07-6.88 317.2-5 319.34-3.13 322.29-3.13L322.29-3.13Q324.27-3.13 325.97-4.03 327.67-4.93 328.71-6.42L328.71-6.42 329.75-2.15Q328.26-0.94 326.33-0.26 324.41 0.42 322.25 0.42ZM314.58-12.19L314.58-12.19Q316.46-12.5 318.37-12.5L318.37-12.5 325.28-12.5Q326.04-12.5 326.79-12.45 327.53-12.4 328.3-12.33L328.3-12.33Q327.81-14.76 325.87-16.34 323.92-17.92 321.46-17.92L321.46-17.92Q318.92-17.92 317.01-16.23 315.1-14.55 314.58-12.19ZM343.15 0L339.4 0 339.4-17.71 334.68-17.71 334.68-20.83 339.51-20.83 339.51-27.78 343.05-27.78 343.05-20.83 348.22-20.83 348.22-17.71 343.15-17.71 343.15 0ZM356.35 0L352.6 0 352.6-20.83 356.07-20.83 356.07-17.01Q357.18-18.85 359.02-19.95 360.86-21.04 363.4-21.04L363.4-21.04 364.33-17.29Q363.67-17.5 362.8-17.5L362.8-17.5Q359.89-17.5 358.12-15.64 356.35-13.78 356.35-10.35L356.35-10.35 356.35 0ZM371.41 10.42L367.35 10.42 374.12-3.06 365.3-20.83 369.54-20.83 373.98-11.81Q374.57-10.59 375.13-9.41 375.68-8.23 376.24-6.56L376.24-6.56Q376.83-8.23 377.37-9.43 377.91-10.63 378.53-11.81L378.53-11.81 383.05-20.83 387.04-20.83 371.41 10.42Z" opacity="1" transform="matrix(1,0,0,1,0,0)" fill="#000000" class="wordmark-text-0" data-fill-palette-color="primary" id="text-0"></path></svg></g></svg></g><g transform="matrix(1,0,0,1,113.77050197542994,55.4959371347027)"><svg viewBox="0 0 167.97899604914005 27.746262486486483" height="27.746262486486483" width="167.97899604914005"><g transform="matrix(1,0,0,1,0,0)"><svg width="167.97899604914005" viewBox="4.4 -34.1 279.67 46.2" height="27.746262486486483" data-palette-color="#d2d6dc"><path d="M4.4 0L4.4-34.1 12.25-34.1Q18.75-34.1 21.88-31.8 25-29.5 25-24.05L25-24.05Q25-21.05 23.85-19.05 22.7-17.05 20.98-15.83 19.25-14.6 17.25-14.08 15.25-13.55 13.55-13.55L13.55-13.55 8.6-13.55 8.6 0 4.4 0ZM8.6-30.35L8.6-17.3 13.2-17.3Q14.9-17.3 16.28-17.63 17.65-17.95 18.65-18.73 19.65-19.5 20.2-20.83 20.75-22.15 20.75-24.15L20.75-24.15Q20.75-26.15 20.18-27.38 19.6-28.6 18.48-29.25 17.35-29.9 15.65-30.13 13.95-30.35 11.7-30.35L11.7-30.35 8.6-30.35ZM32.8-12.45L32.8-12.45Q32.8-7.6 34.97-5.23 37.15-2.85 40.85-2.85L40.85-2.85Q44.5-2.85 46.55-5.2 48.6-7.55 48.6-12.25L48.6-12.25Q48.6-17.25 46.42-19.7 44.25-22.15 40.5-22.15L40.5-22.15Q36.75-22.15 34.77-19.73 32.8-17.3 32.8-12.45ZM28.55-12.5L28.55-12.5Q28.55-16.3 29.75-18.82 30.95-21.35 32.8-22.88 34.65-24.4 36.77-25.03 38.9-25.65 40.8-25.65L40.8-25.65Q42.6-25.65 44.72-25.08 46.85-24.5 48.65-23.03 50.45-21.55 51.65-19.07 52.85-16.6 52.85-12.8L52.85-12.8Q52.85-8.85 51.62-6.25 50.4-3.65 48.55-2.13 46.7-0.6 44.55 0.03 42.4 0.65 40.55 0.65L40.55 0.65Q38.65 0.65 36.55 0.05 34.45-0.55 32.67-2.02 30.9-3.5 29.72-6.05 28.55-8.6 28.55-12.5ZM76.5-3.95L77.25-0.6Q76.09-0.25 74.87 0 73.65 0.25 72.17 0.45 70.7 0.65 69.09 0.65L69.09 0.65Q66.59 0.65 64.45-0.05 62.3-0.75 60.7-2.3 59.09-3.85 58.17-6.33 57.25-8.8 57.25-12.4L57.25-12.4Q57.25-15.65 58.15-18.13 59.05-20.6 60.62-22.28 62.2-23.95 64.32-24.8 66.45-25.65 68.95-25.65L68.95-25.65Q71.4-25.65 73.2-24.7 75-23.75 76.17-22.13 77.34-20.5 77.92-18.32 78.5-16.15 78.5-13.75L78.5-13.75 77.75-11.55 61.59-11.55Q61.59-10 62-8.45 62.4-6.9 63.37-5.65 64.34-4.4 65.92-3.63 67.5-2.85 69.84-2.85L69.84-2.85Q71.34-2.85 72.59-3.03 73.84-3.2 74.77-3.43 75.7-3.65 76.5-3.95L76.5-3.95ZM61.75-14.75L74.34-14.75Q74.34-15.1 74.2-16.3 74.05-17.5 73.5-18.8 72.95-20.1 71.8-21.13 70.65-22.15 68.75-22.15L68.75-22.15Q66.65-22.15 65.3-21.28 63.95-20.4 63.15-19.2 62.34-18 62.05-16.75 61.75-15.5 61.75-14.75L61.75-14.75ZM85.79-32.15L89.79-32.65 89.79-25.15 97.04-25.15 97.04-21.9 89.79-21.9 89.79-8.55Q89.79-6.9 89.87-5.8 89.94-4.7 90.19-4.05 90.44-3.4 90.89-3.13 91.34-2.85 92.04-2.85L92.04-2.85Q93.94-2.9 96.44-4.25L96.44-4.25 97.64-1.2Q95.99-0.1 94.57 0.28 93.14 0.65 91.74 0.65L91.74 0.65Q88.44 0.65 87.12-1.23 85.79-3.1 85.79-7.45L85.79-7.45 85.79-21.9 81.19-21.9 81.19-25.15 85.79-25.15 85.79-32.15ZM102.19 0L102.19-21.1Q102.19-22.25 101.94-24.7L101.94-24.7 105.64-25.2 106.04-21.55 106.09-21.55Q106.99-22.7 107.84-23.55 108.69-24.4 109.62-25.03 110.54-25.65 111.39-25.65L111.39-25.65Q112.54-25.7 114.59-25.4L114.59-25.4 113.69-21.55Q112.04-21.85 111.39-21.8L111.39-21.8Q110.54-21.8 109.59-21 108.64-20.2 107.94-19.3L107.94-19.3Q107.04-18.2 106.19-16.8L106.19-16.8 106.19 0 102.19 0ZM125.79-0.65L115.74-25.15 119.99-25.15 124.69-13.8Q125.39-12.15 125.96-10.5 126.54-8.85 126.99-7.55L126.99-7.55Q127.54-6 127.94-4.55L127.94-4.55 127.99-4.55Q128.44-6 128.99-7.55L128.99-7.55Q129.44-8.85 130.04-10.5 130.64-12.15 131.29-13.8L131.29-13.8 135.64-25.15 139.84-25.15 127.94 4.85Q127.24 6.7 126.11 8.05 124.99 9.4 123.94 10.3L123.94 10.3Q122.69 11.35 121.34 12.1L121.34 12.1 119.39 8.65Q120.44 8.15 121.34 7.4L121.34 7.4Q122.14 6.75 122.94 5.78 123.74 4.8 124.24 3.45L124.24 3.45 125.79-0.65ZM156.08 0L156.08-34.1 160.28-34.1 160.28-19.35 177.53-19.35 177.53-34.1 181.73-34.1 181.73 0 177.53 0 177.53-15.6 160.28-15.6 160.28 0 156.08 0ZM203.43-5.85L203.43-11.55Q202.43-11.5 201.53-11.45 200.63-11.4 199.75-11.33 198.88-11.25 198.18-11.15L198.18-11.15Q194.58-10.7 193.08-9.58 191.58-8.45 191.58-6.35L191.58-6.35Q191.58-4.6 192.65-3.73 193.73-2.85 195.48-2.85L195.48-2.85Q197.88-2.85 199.75-3.68 201.63-4.5 203.43-5.85L203.43-5.85ZM203.88 0.4L203.38-2.35Q201.03-1 199-0.18 196.98 0.65 194.63 0.65L194.63 0.65Q191.28 0.65 189.3-0.98 187.33-2.6 187.33-6.35L187.33-6.35Q187.33-8.3 188.33-9.75 189.33-11.2 190.95-12.18 192.58-13.15 194.63-13.7 196.68-14.25 198.83-14.4L198.83-14.4Q199.73-14.5 201.18-14.58 202.63-14.65 203.43-14.7L203.43-14.7Q203.43-16.45 203.33-17.82 203.23-19.2 202.73-20.18 202.23-21.15 201.25-21.65 200.28-22.15 198.48-22.15L198.48-22.15Q197.03-22.15 195.68-21.98 194.33-21.8 193.28-21.6L193.28-21.6Q192.03-21.35 190.98-21.05L190.98-21.05 190.18-24.5Q191.43-24.8 192.88-25.05L192.88-25.05Q194.13-25.3 195.78-25.48 197.43-25.65 199.33-25.65L199.33-25.65Q201.88-25.65 203.45-24.9 205.03-24.15 205.9-22.88 206.78-21.6 207.1-19.98 207.43-18.35 207.43-16.55L207.43-16.55 207.43-4.55Q207.43-3.85 207.45-3.08 207.48-2.3 207.55-1.55 207.63-0.8 207.73 0L207.73 0 203.88 0.4ZM220.43 0L211.18-25.15 215.58-25.15 221.68-7.4 222.78-3.45 222.83-3.45 223.98-7.4 230.48-25.15 234.68-25.15 224.93 0 220.43 0ZM256.32-3.95L257.07-0.6Q255.93-0.25 254.7 0 253.47 0.25 252 0.45 250.53 0.65 248.93 0.65L248.93 0.65Q246.43 0.65 244.28-0.05 242.13-0.75 240.53-2.3 238.93-3.85 238-6.33 237.07-8.8 237.07-12.4L237.07-12.4Q237.07-15.65 237.97-18.13 238.88-20.6 240.45-22.28 242.03-23.95 244.15-24.8 246.28-25.65 248.78-25.65L248.78-25.65Q251.22-25.65 253.03-24.7 254.82-23.75 256-22.13 257.18-20.5 257.75-18.32 258.32-16.15 258.32-13.75L258.32-13.75 257.57-11.55 241.43-11.55Q241.43-10 241.82-8.45 242.22-6.9 243.2-5.65 244.18-4.4 245.75-3.63 247.32-2.85 249.68-2.85L249.68-2.85Q251.18-2.85 252.43-3.03 253.68-3.2 254.6-3.43 255.53-3.65 256.32-3.95L256.32-3.95ZM241.57-14.75L254.18-14.75Q254.18-15.1 254.03-16.3 253.88-17.5 253.32-18.8 252.78-20.1 251.63-21.13 250.47-22.15 248.57-22.15L248.57-22.15Q246.47-22.15 245.13-21.28 243.78-20.4 242.97-19.2 242.18-18 241.88-16.75 241.57-15.5 241.57-14.75L241.57-14.75ZM263.82 0L263.82-20.15Q263.87-21.2 263.57-24.7L263.57-24.7 267.27-25.2 267.82-22Q269.32-23 270.8-23.75 272.27-24.5 273.82-25.08 275.37-25.65 276.82-25.65L276.82-25.65Q278.87-25.65 280.25-25.18 281.62-24.7 282.47-23.6 283.32-22.5 283.7-20.7 284.07-18.9 284.07-16.2L284.07-16.2 284.07 0 280.07 0 280.07-15.75Q280.07-17.25 280.02-18.43 279.97-19.6 279.6-20.43 279.22-21.25 278.45-21.7 277.67-22.15 276.27-22.15L276.27-22.15Q274.97-22.15 273.52-21.58 272.07-21 270.67-20.25 269.27-19.5 267.82-18.5L267.82-18.5 267.82 0 263.82 0Z" opacity="1" transform="matrix(1,0,0,1,0,0)" fill="#000000" class="slogan-text-1" data-fill-palette-color="secondary" id="text-1"></path></svg></g></svg></g></svg></g></svg></g><g transform="matrix(1,0,0,1,94.98648574734264,0)"><svg viewBox="0 0 205.54702850531464 205.54702850531464" height="205.54702850531464" width="205.54702850531464"><g><svg></svg></g><g id="icon-0"><svg viewBox="0 0 205.54702850531464 205.54702850531464" height="205.54702850531464" width="205.54702850531464"><g><path d="M0 102.774c0-56.76 46.013-102.774 102.774-102.774 56.76 0 102.774 46.013 102.773 102.774 0 56.76-46.013 102.774-102.773 102.773-56.76 0-102.774-46.013-102.774-102.773zM102.774 201.498c54.524 0 98.725-44.201 98.724-98.724 0-54.524-44.201-98.725-98.724-98.725-54.524 0-98.725 44.201-98.725 98.725 0 54.524 44.201 98.725 98.725 98.724z" data-fill-palette-color="accent" fill="#000000" stroke="transparent"></path></g><g transform="matrix(1,0,0,1,40.669552692716536,60.07545293989576)"><svg viewBox="0 0 124.20792311988157 85.39612262552312" height="85.39612262552312" width="124.20792311988157"><g><svg xmlns="http://www.w3.org/2000/svg" xmlns:xlink="http://www.w3.org/1999/xlink" version="1.1" x="0" y="0" viewBox="2.0005889894740436 14.999 95.71482202105192 65.80638716984984" enable-background="new 0 0 100 100" xml:space="preserve" height="85.39612262552312" width="124.20792311988157" class="icon-dxe-0" data-fill-palette-color="accent" id="dxe-0"><g fill="#d2d6dc" data-fill-palette-color="accent"><g fill="#d2d6dc" data-fill-palette-color="accent"><g fill="#d2d6dc" data-fill-palette-color="accent"><g fill="#d2d6dc" data-fill-palette-color="accent"><g fill="#d2d6dc" data-fill-palette-color="accent"><g fill="#d2d6dc" data-fill-palette-color="accent"><path fill="#000000" d="M42.966 51.018H43.572C43.404 50.878 43.242 50.75 43.096 50.596 38.29 46.255 34.623 37.818 34.623 30.997 34.623 21.347 42.523 14.999 49.994 14.999 57.459 14.999 64.962 21.866 64.962 31.512 64.962 38.33 60.906 46.511 55.888 50.703 56.919 54.636 62.566 55.923 74.212 59.117 87.151 62.669 85.791 74.822 84.885 77.362 83.388 81.557 16.311 82.333 15.046 77.362 14.765 75.305 11.8 62.669 24.741 59.117 36.067 56.008 41.709 54.703 42.966 51.018" data-fill-palette-color="accent"></path><path fill="#000000" d="M43.572 51.018H42.966C43.016 50.878 43.054 50.743 43.095 50.596 43.24 50.75 43.405 50.879 43.572 51.018" data-fill-palette-color="accent"></path></g></g></g></g><path fill="#000000" d="M24.331 57.623L26.495 57.031C30.601 55.91 33.852 55.016 36.291 54.128 34.378 53.281 33.284 52.348 32.929 50.996 34.572 49.623 36.058 47.665 37.231 45.484 34.718 41.032 33.074 35.666 33.074 30.998 33.074 29.289 33.363 27.558 33.888 25.88 32.232 24.856 30.376 24.278 28.519 24.278 22.928 24.278 17.016 29.028 17.016 36.25 17.016 41.354 19.76 47.668 23.356 50.917 23.465 51.032 23.587 51.128 23.712 51.233H23.258C22.318 53.991 18.096 54.967 9.62 57.294-0.064 59.952 2.155 69.408 2.365 70.947 2.637 72.016 6.987 72.728 13.062 73.128 12.811 63.074 18.851 59.126 24.331 57.623" data-fill-palette-color="accent"></path><path fill="#000000" d="M75.385 57.623L73.221 57.031C69.115 55.91 65.864 55.016 63.425 54.128 65.338 53.281 66.432 52.348 66.787 50.996 65.144 49.623 63.658 47.665 62.485 45.484 64.998 41.032 66.642 35.666 66.642 30.998 66.642 29.289 66.353 27.558 65.828 25.88 67.484 24.856 69.34 24.278 71.197 24.278 76.788 24.278 82.7 29.028 82.7 36.25 82.7 41.354 79.956 47.668 76.36 50.917 76.251 51.032 76.129 51.128 76.004 51.233H76.458C77.398 53.991 81.62 54.967 90.096 57.294 99.78 59.952 97.561 69.408 97.351 70.947 97.079 72.016 92.729 72.728 86.654 73.128 86.905 63.074 80.864 59.126 75.385 57.623" data-fill-palette-color="accent"></path></g></g></svg></g></svg></g></svg></g></svg></g><g></g></svg></g><defs></defs></svg><rect width="315.4081508516468" height="247.2" fill="none" stroke="none" visibility="hidden"></rect></g></svg></g></svg>